<svg width="44" height="30" viewBox="0 0 44 30" fill="none" xmlns="http://www.w3.org/2000/svg">
<g clip-path="url(#clip0_17_16631)">
<path d="M3.51758 17.9403C3.51758 20.2318 4.42786 22.4294 6.04818 24.0497C7.66849 25.67 9.86611 26.5803 12.1576 26.5803C14.449 26.5803 16.6467 25.67 18.267 24.0497C19.8873 22.4294 20.7976 20.2318 20.7976 17.9403C20.7976 15.6488 19.8873 13.4512 18.267 11.8309C16.6467 10.2106 14.449 9.30029 12.1576 9.30029C9.86611 9.30029 7.66849 10.2106 6.04818 11.8309C4.42786 13.4512 3.51758 15.6488 3.51758 17.9403Z" stroke="black" stroke-width="1.632" stroke-linecap="round" stroke-linejoin="round"/>
<path d="M13.1175 9.39648C13.1175 9.39648 15.9975 12.7891 15.9975 17.9405C15.9975 23.0928 13.1175 26.4845 13.1175 26.4845M11.1975 26.4845C11.1975 26.4845 8.31754 23.0918 8.31754 17.9405C8.31754 12.7891 11.1975 9.39648 11.1975 9.39648M4.47754 20.8205H19.8375M4.47754 15.0605H19.8375" stroke="black" stroke-width="1.632" stroke-linecap="round" stroke-linejoin="round"/>
</g>
<rect x="16.5" y="0.5" width="26.3" height="18" rx="9" fill="#31D6B9"/>
<path d="M24.2925 6.10156H26.6172C27.1035 6.10156 27.521 6.1748 27.8696 6.32129C28.2183 6.46777 28.4863 6.68457 28.6738 6.97168C28.8613 7.25879 28.9551 7.61182 28.9551 8.03076C28.9551 8.36182 28.8965 8.64893 28.7793 8.89209C28.6621 9.13525 28.4966 9.33887 28.2827 9.50293C28.0718 9.66699 27.8228 9.7959 27.5356 9.88965L27.1577 10.083H25.1055L25.0967 9.12939H26.6304C26.8794 9.12939 27.0859 9.08545 27.25 8.99756C27.4141 8.90967 27.5371 8.78809 27.6191 8.63281C27.7041 8.47754 27.7466 8.30029 27.7466 8.10107C27.7466 7.88721 27.7056 7.70264 27.6235 7.54736C27.5415 7.38916 27.417 7.26758 27.25 7.18262C27.083 7.09766 26.8721 7.05518 26.6172 7.05518H25.501V12.5H24.2925V6.10156ZM27.9048 12.5L26.4238 9.63477L27.7026 9.63037L29.2012 12.4385V12.5H27.9048ZM33.5737 6.10156H34.7822V10.3511C34.7822 10.8403 34.6768 11.252 34.4658 11.5859C34.2549 11.917 33.9678 12.1675 33.6045 12.3374C33.2412 12.5044 32.8281 12.5879 32.3652 12.5879C31.8965 12.5879 31.479 12.5044 31.1128 12.3374C30.7466 12.1675 30.4595 11.917 30.2515 11.5859C30.0435 11.252 29.9395 10.8403 29.9395 10.3511V6.10156H31.1479V10.3511C31.1479 10.6499 31.1978 10.8945 31.2974 11.085C31.397 11.2725 31.5376 11.4116 31.7192 11.5024C31.9009 11.5933 32.1162 11.6387 32.3652 11.6387C32.6172 11.6387 32.8325 11.5933 33.0112 11.5024C33.1929 11.4116 33.332 11.2725 33.4287 11.085C33.5254 10.8945 33.5737 10.6499 33.5737 10.3511V6.10156Z" fill="white"/>
<rect x="16.5" y="0.5" width="26.3" height="18" rx="9" stroke="white"/>
<defs>
<clipPath id="clip0_17_16631">
<rect width="24" height="24" fill="white" transform="translate(0 6)"/>
</clipPath>
</defs>
</svg>
